HIERARCHY
ROOT SpineBase
{
  OFFSET 0.000000 0.000000 0.000000
  CHANNELS 6 Xposition Yposition Zposition Zrotation Xrotation Yrotation
  JOINT SpineMid
  {
    OFFSET 0.000000 32.685047 0.000000
    CHANNELS 3 Zrotation Xrotation Yrotation
    JOINT SpineShoulder
    {
      OFFSET 0.064801 24.176815 -0.826980
      CHANNELS 3 Zrotation Xrotation Yrotation
      JOINT Neck
      {
        OFFSET 0.038509 7.966042 -0.613505
        CHANNELS 3 Zrotation Xrotation Yrotation
        JOINT Head
        {
          OFFSET -1.065763 15.422606 -3.695573
          CHANNELS 3 Zrotation Xrotation Yrotation
          End Site
          {
            OFFSET 0 0 0
          }
        }
      }
      JOINT ShoulderLeft
      {
        OFFSET -15.643629 -3.541107 1.951666
        CHANNELS 3 Zrotation Xrotation Yrotation
        JOINT ElbowLeft
        {
          OFFSET 4.641405 -29.097940 -8.865388
          CHANNELS 3 Zrotation Xrotation Yrotation
          JOINT WristLeft
          {
            OFFSET -1.530772 -22.336351 -3.334487
            CHANNELS 3 Zrotation Xrotation Yrotation
            JOINT HandLeft
            {
              OFFSET -0.094566 -6.307068 0.782445
              CHANNELS 3 Zrotation Xrotation Yrotation
              JOINT HandTipLeft
              {
                OFFSET -0.964326 -7.693239 -0.656417
                CHANNELS 3 Zrotation Xrotation Yrotation
                End Site
                {
                  OFFSET 0 0 0
                }
              }
              JOINT ThumbLeft
              {
                OFFSET 4.180396 1.084905 -2.192630
                CHANNELS 3 Zrotation Xrotation Yrotation
                End Site
                {
                  OFFSET 0 0 0
                }
              }
            }
          }
        }
      }
      JOINT ShoulderRight
      {
        OFFSET 15.849946 -5.082165 -2.867955
        CHANNELS 3 Zrotation Xrotation Yrotation
        JOINT ElbowRight
        {
          OFFSET 3.792109 -28.449349 0.066266
          CHANNELS 3 Zrotation Xrotation Yrotation
          JOINT WristRight
          {
            OFFSET 0.057008 -21.578232 -7.637919
            CHANNELS 3 Zrotation Xrotation Yrotation
            JOINT HandRight
            {
              OFFSET -2.410583 -5.715238 -2.454819
              CHANNELS 3 Zrotation Xrotation Yrotation
              JOINT HandTipRight
              {
                OFFSET -1.331717 -6.616862 -2.348548
                CHANNELS 3 Zrotation Xrotation Yrotation
                End Site
                {
                  OFFSET 0 0 0
                }
              }
              JOINT ThumbRight
              {
                OFFSET -3.620479 -0.113259 -2.072314
                CHANNELS 3 Zrotation Xrotation Yrotation
                End Site
                {
                  OFFSET 0 0 0
                }
              }
            }
          }
        }
      }
    }
  }
  JOINT HipLeft
  {
    OFFSET -7.880781 0.559048 -3.140334
    CHANNELS 3 Zrotation Xrotation Yrotation
    JOINT KneeLeft
    {
      OFFSET -2.142516 -37.407889 0.722578
      CHANNELS 3 Zrotation Xrotation Yrotation
      JOINT AnkleLeft
      {
        OFFSET 2.103404 -34.431711 10.128189
        CHANNELS 3 Zrotation Xrotation Yrotation
        JOINT FootLeft
        {
          OFFSET -1.318928 -4.297114 -13.868984
          CHANNELS 3 Zrotation Xrotation Yrotation
          End Site
          {
            OFFSET 0 0 0
          }
        }
      }
    }
  }
  JOINT HipRight
  {
    OFFSET 8.014414 0.755663 -4.482163
    CHANNELS 3 Zrotation Xrotation Yrotation
    JOINT KneeRight
    {
      OFFSET 2.242771 -39.030931 -0.415507
      CHANNELS 3 Zrotation Xrotation Yrotation
      JOINT AnkleRight
      {
        OFFSET 0.527193 -34.092751 8.626793
        CHANNELS 3 Zrotation Xrotation Yrotation
        JOINT FootRight
        {
          OFFSET -1.508125 -4.273347 -13.862411
          CHANNELS 3 Zrotation Xrotation Yrotation
          End Site
          {
            OFFSET 0 0 0
          }
        }
      }
    }
  }
}
MOTION
Frames: 16
Frame Time: 0.033333
-5.778434 78.539894 341.272687 -0.000000 0.000000 4.825314 0.000000 -0.000000 -4.825314 -0.000000 0.000000 0.000000 -0.000000 0.000000 0.000000 0.000000 0.000000 0.000000 -0.000000 0.000000 0.000000 -0.000000 0.000000 0.000000 -0.000000 0.000000 0.000000 -0.000000 0.000000 0.000000 0.000000 0.000000 0.000000 0.000000 0.000000 0.000000 -0.000000 0.000000 0.000000 -0.000000 0.000000 0.000000 -0.000000 0.000000 0.000000 -0.000000 0.000000 0.000000 0.000000 0.000000 0.000000 0.000000 0.000000 0.000000 0.000000 -0.000000 -4.825314 -0.000000 0.000000 0.000000 -0.000000 0.000000 0.000000 0.000000 0.000000 0.000000 0.000000 -0.000000 -4.825314 -0.000000 0.000000 0.000000 -0.000000 0.000000 0.000000 0.000000 0.000000 0.000000
-5.765069 78.535397 341.238022 -0.018359 0.017998 4.924676 0.016746 -0.019507 -4.924670 -0.000000 0.000000 0.000000 -0.000000 0.000000 0.000000 0.000000 0.000000 0.000000 -0.000000 0.000000 0.000000 -0.000000 0.000000 0.000000 -0.000000 0.000000 0.000000 -0.000000 0.000000 0.000000 0.000000 0.000000 0.000000 0.000000 0.000000 0.000000 -0.000000 0.000000 0.000000 -0.000000 0.000000 0.000000 -0.000000 0.000000 0.000000 -0.000000 0.000000 0.000000 0.000000 0.000000 0.000000 0.000000 0.000000 0.000000 0.016746 -0.019507 -4.924670 -0.000000 0.000000 0.000000 -0.000000 0.000000 0.000000 0.000000 0.000000 0.000000 0.016746 -0.019507 -4.924670 -0.000000 0.000000 0.000000 -0.000000 0.000000 0.000000 0.000000 0.000000 0.000000
-5.752770 78.530719 341.205368 -0.038162 0.033572 5.015236 0.035081 -0.036779 -5.015213 -0.000000 0.000000 0.000000 -0.000000 0.000000 0.000000 0.000000 0.000000 0.000000 -0.000000 0.000000 0.000000 -0.000000 0.000000 0.000000 -0.000000 0.000000 0.000000 -0.000000 0.000000 0.000000 0.000000 0.000000 0.000000 0.000000 0.000000 0.000000 -0.000000 0.000000 0.000000 -0.000000 0.000000 0.000000 -0.000000 0.000000 0.000000 0.850305 -0.232480 -0.253855 0.000000 0.000000 0.000000 0.000000 0.000000 0.000000 0.035081 -0.036779 -5.015213 -0.000000 0.000000 0.000000 -0.000000 0.000000 0.000000 0.000000 0.000000 0.000000 0.035081 -0.036779 -5.015213 -0.000000 0.000000 0.000000 -0.000000 0.000000 0.000000 0.000000 0.000000 0.000000
-5.741538 78.525863 341.174725 -0.059407 0.046720 5.097009 0.055021 -0.051814 -5.096960 -0.000000 0.000000 0.000000 -0.000000 0.000000 0.000000 0.000000 0.000000 0.000000 -0.000000 0.000000 0.000000 -0.000000 0.000000 0.000000 -0.000000 0.000000 0.000000 -1.016862 0.270931 0.055136 0.000000 0.000000 0.000000 0.000000 0.000000 0.000000 -0.000000 0.000000 0.000000 -0.000000 0.000000 0.000000 -0.000000 0.000000 0.000000 1.114629 -0.373363 -0.317845 0.000000 0.000000 0.000000 0.000000 0.000000 0.000000 0.055021 -0.051814 -5.096960 -0.000000 0.000000 0.000000 -0.000000 0.000000 0.000000 0.000000 0.000000 0.000000 0.055021 -0.051814 -5.096960 -0.000000 0.000000 0.000000 -0.000000 0.000000 0.000000 0.000000 0.000000 0.000000
-5.731372 78.520826 341.146093 -0.082093 0.057443 5.170011 0.076583 -0.064607 -5.169926 -0.000000 0.000000 0.000000 -0.000000 0.000000 0.000000 0.000000 0.000000 0.000000 -0.000000 0.000000 0.000000 -0.000000 0.000000 0.000000 0.002198 -1.004052 0.015330 -1.441931 1.188077 0.111871 0.000000 0.000000 0.000000 0.000000 0.000000 0.000000 -0.000000 0.000000 0.000000 -0.000000 0.000000 0.000000 0.787718 -0.517239 -0.117195 0.466936 -0.009249 -0.221718 0.000000 0.000000 0.000000 0.000000 0.000000 0.000000 0.076583 -0.064607 -5.169926 -0.000000 0.000000 0.000000 -0.000000 0.000000 0.000000 0.000000 0.000000 0.000000 0.076583 -0.064607 -5.169926 -0.000000 0.000000 0.000000 -0.000000 0.000000 0.000000 0.000000 0.000000 0.000000
-5.722271 78.515611 341.119473 -0.106217 0.065739 5.234251 0.099777 -0.075155 -5.234125 -0.000000 0.000000 0.000000 -0.000000 0.000000 0.000000 0.000000 0.000000 0.000000 -0.000000 0.000000 0.000000 -0.917678 0.206973 0.124370 1.066668 -1.621317 -0.078636 -2.060276 1.423691 0.170203 0.000000 0.000000 0.000000 0.000000 0.000000 0.000000 -0.000000 0.000000 0.000000 -0.000000 0.000000 0.000000 1.004739 -0.757776 -0.105996 0.258086 0.066576 -0.200195 0.000000 0.000000 0.000000 0.000000 0.000000 0.000000 0.099777 -0.075155 -5.234125 -0.000000 0.000000 0.000000 -0.000000 0.000000 0.000000 0.000000 0.000000 0.000000 0.099777 -0.075155 -5.234125 -0.000000 0.000000 0.000000 -0.000000 0.000000 0.000000 0.000000 0.000000 0.000000
-5.713201 78.509826 341.088316 -0.134171 0.074149 5.305022 0.126740 -0.086236 -5.304840 -0.000000 0.000000 0.000000 -0.000000 0.000000 0.000000 0.000000 0.000000 0.000000 -0.000000 0.000000 0.000000 -1.320514 0.386307 0.174893 1.782001 -2.267646 -0.069214 -3.561678 2.021681 0.272246 0.000000 0.000000 0.000000 0.000000 0.000000 0.000000 -0.000000 0.000000 0.000000 -0.000000 0.000000 0.000000 1.105402 -1.146665 0.020080 -0.034449 0.992444 -0.367731 0.000000 0.000000 0.000000 0.000000 0.000000 0.000000 0.126740 -0.086236 -5.304840 -0.000000 0.000000 0.000000 -0.000000 0.000000 0.000000 0.000000 0.000000 0.000000 0.126740 -0.086236 -5.304840 -0.000000 0.000000 0.000000 -0.000000 0.000000 0.000000 0.000000 0.000000 0.000000
-5.706221 78.504322 341.065444 -0.158240 0.077236 5.355791 0.150340 -0.091669 -5.355565 -0.000000 0.000000 0.000000 -0.000000 0.000000 0.000000 0.000000 0.000000 0.000000 -0.000000 0.000000 0.000000 -1.659978 0.541382 0.218197 2.465219 -3.319808 -0.032811 -4.282987 2.237198 0.391255 0.000000 0.000000 0.000000 0.000000 0.000000 0.000000 -0.000000 0.000000 0.000000 -0.000000 0.000000 0.000000 1.561227 -1.568451 0.012480 -0.358598 -0.559905 0.021471 0.000000 0.000000 0.000000 0.000000 0.000000 0.000000 0.150340 -0.091669 -5.355565 -0.000000 0.000000 0.000000 -0.000000 0.000000 0.000000 0.000000 0.000000 0.000000 0.150340 -0.091669 -5.355565 -0.000000 0.000000 0.000000 -0.000000 0.000000 0.000000 0.000000 0.000000 0.000000
-5.699794 78.498833 341.047649 -0.182710 0.078575 5.369376 0.174555 -0.095327 -5.369106 -0.000000 0.000000 0.000000 -0.000000 0.000000 0.000000 0.000000 0.000000 0.000000 -0.000000 0.000000 0.000000 -1.952638 0.791333 0.250230 3.138373 -4.044360 0.023899 -4.292667 2.247329 0.374617 0.000000 0.000000 0.000000 0.000000 0.000000 0.000000 -0.000000 0.000000 0.000000 -0.000000 0.000000 0.000000 1.584346 -1.942327 0.167822 -0.258759 0.147805 -0.247944 0.000000 0.000000 0.000000 0.000000 0.000000 0.000000 0.174555 -0.095327 -5.369106 -0.000000 0.000000 0.000000 -0.000000 0.000000 0.000000 0.000000 0.000000 0.000000 0.174555 -0.095327 -5.369106 -0.000000 0.000000 0.000000 -0.000000 0.000000 0.000000 0.000000 0.000000 0.000000
-5.696748 78.494333 341.034969 -0.210466 0.073949 5.408902 0.202559 -0.093459 -5.408601 -0.000000 0.000000 0.000000 -0.000000 0.000000 0.000000 0.000000 0.000000 0.000000 -0.000000 0.000000 0.000000 -2.135652 0.920089 0.272276 3.401554 -4.635208 0.037662 -3.528280 2.483912 0.294556 0.000000 0.000000 0.000000 0.000000 0.000000 0.000000 -0.000000 0.000000 0.000000 -0.000000 0.000000 0.000000 1.708645 -2.008597 0.145284 -0.451936 0.317742 -0.216681 0.000000 0.000000 0.000000 0.000000 0.000000 0.000000 0.202559 -0.093459 -5.408601 -0.000000 0.000000 0.000000 -0.000000 0.000000 0.000000 0.000000 0.000000 0.000000 0.202559 -0.093459 -5.408601 -0.000000 0.000000 0.000000 -0.000000 0.000000 0.000000 0.000000 0.000000 0.000000
-5.690167 78.487609 341.024698 -0.236014 0.069310 5.411397 0.228426 -0.091258 -5.411072 -0.000000 0.000000 0.000000 -0.000000 0.000000 0.000000 0.000000 0.000000 0.000000 -0.000000 0.000000 0.000000 -2.072233 0.795674 0.268635 3.153191 -4.582200 0.003341 -2.803747 2.172137 0.280271 0.000000 0.000000 0.000000 0.000000 0.000000 0.000000 -0.000000 0.000000 0.000000 -0.000000 0.000000 0.000000 1.759937 -1.981775 0.111968 -0.426414 0.567124 -0.269901 0.000000 0.000000 0.000000 0.000000 0.000000 0.000000 0.228426 -0.091258 -5.411072 -0.000000 0.000000 0.000000 -0.000000 0.000000 0.000000 0.000000 0.000000 0.000000 0.228426 -0.091258 -5.411072 -0.000000 0.000000 0.000000 -0.000000 0.000000 0.000000 0.000000 0.000000 0.000000
-5.682001 78.483428 341.010766 -0.262683 0.064455 5.429116 0.255407 -0.089018 -5.428770 -0.000000 0.000000 0.000000 -0.000000 0.000000 0.000000 0.000000 0.000000 0.000000 -0.000000 0.000000 0.000000 -1.935810 0.609736 0.257027 2.969671 -4.113767 -0.011614 -2.166023 1.870526 0.202254 0.000000 0.000000 0.000000 0.000000 0.000000 0.000000 -0.000000 0.000000 0.000000 -0.000000 0.000000 0.000000 2.067409 -1.810220 -0.093188 -1.245704 -0.125653 0.245055 0.000000 0.000000 0.000000 0.000000 0.000000 0.000000 0.255407 -0.089018 -5.428770 -0.000000 0.000000 0.000000 -0.000000 0.000000 0.000000 0.000000 0.000000 0.000000 0.255407 -0.089018 -5.428770 -0.000000 0.000000 0.000000 -0.000000 0.000000 0.000000 0.000000 0.000000 0.000000
-5.669979 78.474769 340.996066 -0.280917 0.061245 5.438684 0.273848 -0.087594 -5.438324 -0.000000 0.000000 0.000000 -0.000000 0.000000 0.000000 0.000000 0.000000 0.000000 -0.000000 0.000000 0.000000 -1.716227 0.314164 0.239058 2.173384 -3.173755 -0.114872 -1.132985 1.264274 0.190883 0.000000 0.000000 0.000000 0.000000 0.000000 0.000000 -0.000000 0.000000 0.000000 -0.000000 0.000000 0.000000 2.084797 -1.666602 -0.164537 -1.166579 -1.122929 0.459920 0.000000 0.000000 0.000000 0.000000 0.000000 0.000000 0.273848 -0.087594 -5.438324 -0.000000 0.000000 0.000000 -0.000000 0.000000 0.000000 0.000000 0.000000 0.000000 0.273848 -0.087594 -5.438324 -0.000000 0.000000 0.000000 -0.000000 0.000000 0.000000 0.000000 0.000000 0.000000
-5.660363 78.464236 340.975856 -0.308266 0.054458 5.470687 0.301670 -0.083598 -5.470320 -0.000000 0.000000 0.000000 -0.000000 0.000000 0.000000 0.000000 0.000000 0.000000 -0.000000 0.000000 0.000000 -1.576796 0.080038 0.230781 1.455793 -2.520085 -0.208552 -0.122993 1.315413 0.142959 0.000000 0.000000 0.000000 0.000000 0.000000 0.000000 -0.000000 0.000000 0.000000 -0.000000 0.000000 0.000000 1.985903 -1.440385 -0.223387 -1.054001 -3.482260 0.967330 0.000000 0.000000 0.000000 0.000000 0.000000 0.000000 0.301670 -0.083598 -5.470320 -0.000000 0.000000 0.000000 -0.000000 0.000000 0.000000 0.000000 0.000000 0.000000 0.301670 -0.083598 -5.470320 -0.000000 0.000000 0.000000 -0.000000 0.000000 0.000000 0.000000 0.000000 0.000000
-5.659702 78.451575 340.946531 -0.346621 0.041897 5.551757 0.340942 -0.075233 -5.551407 -0.000000 0.000000 0.000000 -0.000000 0.000000 0.000000 0.000000 0.000000 0.000000 -0.000000 0.000000 0.000000 -1.490711 -0.110616 0.228524 0.903248 -1.866517 -0.282607 0.578510 1.973929 0.032275 0.000000 0.000000 0.000000 0.000000 0.000000 0.000000 -0.000000 0.000000 0.000000 -0.000000 0.000000 0.000000 1.768124 -1.172136 -0.249740 -0.425253 -3.090126 0.701570 0.000000 0.000000 0.000000 0.000000 0.000000 0.000000 0.340942 -0.075233 -5.551407 -0.000000 0.000000 0.000000 -0.000000 0.000000 0.000000 0.000000 0.000000 0.000000 0.340942 -0.075233 -5.551407 -0.000000 0.000000 0.000000 -0.000000 0.000000 0.000000 0.000000 0.000000 0.000000
-5.666057 78.430587 340.903944 -0.401064 0.017070 5.652296 0.397432 -0.056487 -5.652040 -0.000000 0.000000 0.000000 0.081113 -0.937272 -0.044581 0.000000 0.000000 0.000000 -0.000000 0.000000 0.000000 -1.436237 -0.255833 0.228626 0.845674 -1.460432 -0.287957 0.583239 1.713327 0.038018 0.000000 0.000000 0.000000 0.000000 0.000000 0.000000 -0.000000 0.000000 0.000000 -0.000000 0.000000 0.000000 1.386142 -0.732427 -0.279814 -0.639453 -2.261628 0.652485 0.000000 0.000000 0.000000 0.000000 0.000000 0.000000 0.397432 -0.056487 -5.652040 -0.000000 0.000000 0.000000 -0.000000 0.000000 0.000000 0.000000 0.000000 0.000000 0.397432 -0.056487 -5.652040 -0.000000 0.000000 0.000000 -0.000000 0.000000 0.000000 0.000000 0.000000 0.000000
